<svg width="133" height="42" viewBox="0 0 133 42" fill="none" xmlns="http://www.w3.org/2000/svg">
<g clip-path="url(#clip0_17_394)">
<path d="M56.4302 38.8057H55.7265C56.9635 40.7272 59.1331 41.9999 61.6027 41.9999C63.7637 41.9999 65.695 41.0253 66.9716 39.4947C68.2497 41.0253 70.181 41.9999 72.3425 41.9999C74.812 41.9999 76.983 40.7268 78.22 38.8043H77.5154C76.3545 40.3907 74.4692 41.4208 72.3425 41.4208C70.0905 41.4208 68.1101 40.266 66.9716 38.5201C65.8351 40.266 63.8543 41.4208 61.6027 41.4208C59.475 41.4208 57.5906 40.3907 56.4302 38.8057ZM72.3221 36.3827V34.9554H74.6156V34.1067H72.3221V32.8474H74.8981V31.9988H71.1865V37.2313H75.017V36.3827H72.3221ZM67.7569 37.2313H68.884L70.3643 31.9993H69.3476L68.3966 35.6271L67.5677 31.9993H66.4977L65.5972 35.644L64.7556 31.9993H63.4907L64.9548 37.2313H66.0725L66.9045 33.8761L67.7569 37.2313ZM63.1502 37.2313L61.7901 35.2396C62.146 35.1077 62.9245 34.6149 62.9245 33.7252C62.9245 32.608 62.05 31.9993 61.1297 31.9993H58.6862V37.2313H59.8223V32.8001H60.79C61.3018 32.8001 61.76 33.1308 61.76 33.7542C61.76 34.3798 61.208 34.7199 60.595 34.7199C60.4778 34.7199 60.3773 34.7226 60.2904 34.7069L61.7252 37.2313H63.1502ZM50.0782 37.2313L52.0193 31.9988H50.9508L49.6034 35.8469L49.5989 35.8362L48.2856 31.9988H46.9878L48.9623 37.2313H50.0782ZM56.5621 34.6059C56.5621 35.6761 55.8742 36.5431 55.002 36.5431C54.1304 36.5431 53.442 35.6761 53.442 34.6059C53.442 33.5366 54.1304 32.6696 55.002 32.6696C55.8742 32.6696 56.5621 33.5366 56.5621 34.6059ZM55.002 31.8326C53.4763 31.8326 52.2401 33.0745 52.2401 34.6059C52.2401 36.1378 53.4763 37.3792 55.002 37.3792C56.5279 37.3792 57.7645 36.1378 57.7645 34.6059C57.7645 33.0745 56.5279 31.8326 55.002 31.8326ZM77.4993 30.3946H78.2051C76.9654 28.4855 74.803 27.2222 72.3425 27.2222C70.1814 27.2222 68.2497 28.1981 66.9721 29.7292C65.695 28.1981 63.7632 27.2222 61.6023 27.2222C59.1426 27.2222 56.9815 28.4895 55.7422 30.3981H56.4472C57.6096 28.8256 59.4853 27.8022 61.6023 27.8022C63.8547 27.8022 65.8351 28.9574 66.9721 30.7033C68.1101 28.9574 70.0905 27.8022 72.3425 27.8022C74.4593 27.8022 76.3369 28.8224 77.4993 30.3946ZM80.5086 37.2313L79.1489 35.2396C79.5057 35.1077 80.284 34.6149 80.284 33.7252C80.284 32.608 79.4089 31.9993 78.489 31.9993H76.045V37.2313H77.1807V32.8001H78.1493C78.6606 32.8001 79.1188 33.1308 79.1188 33.7542C79.1188 34.3798 78.5669 34.7199 77.9547 34.7199C77.8371 34.7199 77.7362 34.7226 77.6492 34.7069L79.084 37.2313H80.5086ZM81.2803 37.2313H82.4152V31.9993H81.2803V37.2313ZM86.0117 37.2308L83.8049 34.3284L85.7641 31.9993H84.4022L82.5625 34.3896L84.4978 37.2313L86.0117 37.2308Z" fill="#00AC46"/>
<path d="M0 16.6567V5.94519L3.49632 4.94263V8.46206H7.03145V11.2988H3.49632V16.0526C3.49632 17.7599 4.49164 18.5741 6.77711 18.5741V21.7522H6.02427C2.0707 21.7522 0 19.94 0 16.6567Z" fill="#00AC46"/>
<path d="M9.55469 21.7521V3.47168H13.0511V9.80159C13.9117 8.82992 15.3095 8.04172 17.1116 8.04172C20.3123 8.04172 22.1405 10.1429 22.1405 13.6886V21.7521H18.645V14.2667C18.645 12.2704 17.6228 11.2198 15.9554 11.2198C14.7992 11.2198 13.8039 11.7453 13.0511 12.6906V21.7521H9.55469Z" fill="#00AC46"/>
<path d="M31.6961 22.1723C27.2861 22.1723 24.2739 19.2307 24.2739 15.1335C24.2739 10.9311 27.2861 8.04175 31.2127 8.04175C35.3541 8.04175 37.9898 10.9048 37.9898 15.1858V16.1579H27.8773C28.1736 18.1801 29.7871 19.2307 31.6961 19.2307C33.3373 19.2307 34.4935 18.5477 35.4619 17.7598L37.344 19.9137C36.08 21.1744 34.144 22.1723 31.6961 22.1723ZM34.5204 13.7939C34.278 11.9813 33.0679 10.8259 31.2127 10.8259C29.4376 10.8259 28.0928 11.9813 27.8504 13.7939H34.5204Z" fill="#00AC46"/>
<path d="M40.3262 21.752V8.46189H43.6878V10.1428C44.4137 8.90842 45.7045 8.12061 47.3181 8.12061C47.7222 8.12061 47.937 8.14689 48.2325 8.19916V11.4035C47.91 11.3513 47.5336 11.2987 47.1033 11.2987C45.7585 11.2987 44.5214 11.9554 43.8225 13.3209V21.752H40.3262Z" fill="#00AC46"/>
<path d="M50.5073 21.7521V8.46198H53.8959V9.88018C54.8374 8.77737 56.1821 8.04175 57.8495 8.04175C59.5977 8.04175 61.0232 8.9085 61.8569 10.3004C62.9592 8.93479 64.358 8.04175 66.4556 8.04175C69.3869 8.04175 71.3775 10.2219 71.3775 13.7413V21.7521H67.8812V14.1615C67.8812 12.1655 66.8051 11.2198 65.3802 11.2198C64.1163 11.2198 63.2557 11.8238 62.6637 12.6907V21.7521H59.2212V13.9251C59.2212 12.1129 58.1451 11.2198 56.7203 11.2198C55.5371 11.2198 54.6764 11.7976 54.0037 12.6907V21.7521H50.5073Z" fill="#00AC46"/>
<path d="M73.4673 15.1072C73.4673 11.0623 76.4255 8.04175 80.7557 8.04175C85.0316 8.04175 88.0165 11.0623 88.0165 15.1072C88.0165 19.1518 85.0316 22.1723 80.7557 22.1723C76.4255 22.1723 73.4673 19.1518 73.4673 15.1072ZM80.7557 18.9157C82.9068 18.9157 84.4407 17.3396 84.4407 15.1072C84.4407 12.8482 82.9068 11.2988 80.7557 11.2988C78.577 11.2988 77.0444 12.8745 77.0444 15.1072C77.0444 17.3396 78.577 18.9157 80.7557 18.9157Z" fill="#00AC46"/>
<path d="M90.1064 21.7521V8.46198H93.4952V9.88018C94.4365 8.77737 95.7816 8.04175 97.4485 8.04175C99.1966 8.04175 100.622 8.9085 101.455 10.3004C102.558 8.93479 103.958 8.04175 106.055 8.04175C108.986 8.04175 110.976 10.2219 110.976 13.7413V21.7521H107.48V14.1615C107.48 12.1655 106.404 11.2198 104.979 11.2198C103.715 11.2198 102.855 11.8238 102.262 12.6907V21.7521H98.8199V13.9251C98.8199 12.1129 97.7448 11.2198 96.3192 11.2198C95.1358 11.2198 94.2748 11.7976 93.6027 12.6907V21.7521H90.1064Z" fill="#00AC46"/>
<path d="M124.071 15.1335L119.66 8.46191H123.48L126.277 12.9007L129.181 8.46191H132.811L128.293 14.923L133 21.752H129.154L126.115 17.1294L123.103 21.752H119.472L124.071 15.1335Z" fill="#00AC46"/>
<path d="M117.422 9.76391C116.044 9.76376 115.042 8.86923 114.359 7.0288L114.13 6.40146L114.019 6.43415C113.921 6.46278 111.765 7.10173 110.981 7.73294C110.895 7.48301 110.834 7.23637 110.8 6.99727C110.561 5.39381 111.464 4.25423 113.56 3.51295L114.204 3.28739L114.171 3.17926C114.141 3.08408 113.486 0.980762 112.841 0.213756C113.096 0.130381 113.349 0.0709942 113.593 0.0371414C113.768 0.0123804 113.938 0 114.1 0C115.478 0 116.48 0.894102 117.162 2.73356L117.394 3.36516L117.505 3.33227C117.602 3.30325 119.753 2.66005 120.539 2.02981C120.627 2.28941 120.687 2.5318 120.719 2.76625C120.96 4.36972 120.057 5.50853 117.959 6.24864L117.315 6.47516L117.348 6.5831C117.378 6.67828 118.035 8.78119 118.68 9.54878C118.423 9.63239 118.17 9.69212 117.926 9.72697C117.754 9.75131 117.584 9.76391 117.422 9.76391Z" fill="#00AC46"/>
<path d="M117.623 11.8485C117.623 12.772 117.623 21.7521 117.623 21.7521H114.127V9.76392C114.127 9.76392 115.571 11.8485 117.623 11.8485Z" fill="#00AC46"/>
</g>
<defs>
<clipPath id="clip0_17_394">
<rect width="133" height="42" fill="white"/>
</clipPath>
</defs>
</svg>
