<svg width="14" height="14" viewBox="0 0 14 14" fill="none" xmlns="http://www.w3.org/2000/svg">
<path d="M13.3682 11.4507C12.6412 13.1939 10.9368 13.4994 10.3799 13.4994C10.2163 13.4994 7.66919 13.6344 4.00771 10.1604C1.06103 7.36462 0.700989 4.35814 0.669619 3.78691C0.639104 3.23051 0.79838 1.83474 2.71796 0.797689C2.9558 0.66918 3.42735 0.612271 3.54913 0.734076C3.60317 0.788132 5.21432 3.44003 5.25667 3.52789C5.29902 3.61561 5.32027 3.70204 5.32027 3.78677C5.32027 3.90786 5.234 4.05933 5.06132 4.24104C4.88878 4.42275 4.70113 4.58934 4.49822 4.74067C4.29531 4.89214 4.10766 5.0526 3.93498 5.22219C3.76245 5.39163 3.67618 5.53112 3.67618 5.64009C3.68787 5.92292 3.91958 6.93602 5.68473 8.48739C7.45017 10.0392 8.30059 10.4764 8.3823 10.5066C8.46414 10.5368 8.53216 10.5518 8.58663 10.5518C8.69571 10.5518 8.83503 10.4657 9.00457 10.2931C9.17397 10.1204 9.74391 9.33903 9.92557 9.16631C10.1072 8.99387 10.2587 8.90758 10.3799 8.90758C10.4646 8.90758 10.5508 8.92869 10.6385 8.97105C10.7264 9.01341 13.381 10.5672 13.4318 10.6191C13.5695 10.7603 13.4723 11.2011 13.3682 11.4507Z" fill="#00AC46"/>
</svg>
