<?xml version="1.0" encoding="UTF-8" standalone="no"?>
<svg
   width="40"
   height="40"
   viewBox="0 0 40 40"
   fill="none"
   version="1.1"
   id="svg4"
   xmlns="http://www.w3.org/2000/svg"
   xmlns:svg="http://www.w3.org/2000/svg">
  <g
     filter="url(#filter0_d_65_213)"
     id="g2"
     transform="matrix(1.3703704,0,0,1.3703704,-0.55555507,-0.55555507)"
     style="stroke-width:0.72973">
    <rect
       x="1.5"
       width="27"
       height="27"
       rx="13.5"
       fill="#00ac46"
       id="rect1"
       y="1.5"
       style="fill:#f3f6f8;fill-opacity:1;stroke:#ffffff;stroke-width:2.18919;stroke-opacity:1" />
    <path
       d="m 20.387186,18.743297 c -0.6231,1.4942 -2.0841,1.7561 -2.5615,1.7561 -0.1401,0 -2.3234,0.1158 -5.4618,-2.862 -2.5256998,-2.3964 -2.8342998,-4.9734 -2.8611998,-5.463 -0.0262,-0.4769 0.1103,-1.6733 1.7556998,-2.5621996 0.2039,-0.1101 0.608,-0.15889 0.7124,-0.0545 0.0463,0.0463 1.4273,2.3193996 1.4636,2.3946996 0.0363,0.0752 0.0545,0.1493 0.0545,0.2219 0,0.1038 -0.0739,0.2336 -0.2219,0.3894 -0.1479,0.1557 -0.3087,0.2985 -0.4827,0.4282 -0.1739,0.1299 -0.3347,0.2674 -0.4827,0.4128 -0.1479,0.1452 -0.2219,0.2648 -0.2219,0.3582 0.01,0.2424 0.2087,1.1108 1.7216,2.4405 1.5133,1.3301 2.2422,1.7048 2.3122,1.7308 0.0702,0.0259 0.1285,0.0387 0.1752,0.0387 0.0935,0 0.2129,-0.0738 0.3582,-0.2218 0.1452,-0.148 0.6337,-0.8177 0.7894,-0.9658 0.1558,-0.1478 0.2856,-0.2217 0.3894,-0.2217 0.0726,0 0.1466,0.0181 0.2218,0.0544 0.0752,0.0363 2.3507,1.3681 2.3942,1.4126 0.118,0.121 0.0347,0.4988 -0.0545,0.7127 z"
       fill="#00ac46"
       id="path2"
       style="stroke-width:0.72973" />
  </g>
  <defs
     id="defs4" />
</svg>
