<svg width="28" height="8" viewBox="0 0 28 8" fill="none" xmlns="http://www.w3.org/2000/svg">
<path opacity="0.25" d="M2.66527 6C2.11354 5.99994 1.71257 5.63348 1.43941 4.8795L1.34762 4.6225L1.30331 4.63589C1.26411 4.64762 0.40129 4.90938 0.0873347 5.16797C0.0529112 5.06558 0.0286856 4.96454 0.01498 4.86658C-0.0806409 4.20969 0.280807 3.74284 1.11972 3.43916L1.37726 3.34675L1.36387 3.30245C1.35208 3.26346 1.08976 2.40179 0.831581 2.08757C0.933896 2.05341 1.03526 2.02908 1.13279 2.01522C1.20259 2.00507 1.2708 2 1.33582 2C1.88724 2 2.28821 2.36629 2.56105 3.11986L2.65412 3.37861L2.69842 3.36514C2.73731 3.35325 3.5979 3.08975 3.91281 2.83156C3.94787 2.93791 3.97177 3.03721 3.98484 3.13326C4.0811 3.79015 3.71965 4.25669 2.8801 4.55989L2.62224 4.65269L2.63563 4.69691C2.64742 4.7359 2.91038 5.59741 3.16856 5.91187C3.0656 5.94612 2.96457 5.97059 2.86703 5.98486C2.79787 5.99484 2.72998 6 2.66527 6Z" fill="#00AC46"/>
<path opacity="0.6" d="M12.9979 7C12.1703 6.9999 11.5689 6.45021 11.1591 5.31925L11.0214 4.93375L10.955 4.95384C10.8962 4.97143 9.60193 5.36407 9.131 5.75195C9.07937 5.59837 9.04303 5.4468 9.02247 5.29988C8.87904 4.31454 9.42121 3.61426 10.6796 3.15874L11.0659 3.02013L11.0458 2.95368C11.0281 2.89519 10.6346 1.60269 10.2474 1.13135C10.4008 1.08012 10.5529 1.04363 10.6992 1.02282C10.8039 1.00761 10.9062 1 11.0037 1C11.8309 1 12.4323 1.54943 12.8416 2.6798L12.9812 3.06792L13.0476 3.04771C13.106 3.02988 14.3968 2.63462 14.8692 2.24734C14.9218 2.40686 14.9577 2.55581 14.9773 2.69988C15.1216 3.68523 14.5795 4.38503 13.3201 4.83984L12.9334 4.97904L12.9534 5.04537C12.9711 5.10386 13.3656 6.39611 13.7528 6.8678C13.5984 6.91918 13.4468 6.95588 13.3005 6.9773C13.1968 6.99226 13.095 7 12.9979 7Z" fill="#00AC46"/>
<path d="M25.3305 8C24.2271 7.99987 23.4251 7.26695 22.8788 5.75901L22.6952 5.245L22.6066 5.27178C22.5282 5.29524 20.8026 5.81876 20.1747 6.33594C20.1058 6.13116 20.0574 5.92907 20.03 5.73317C19.8387 4.41939 20.5616 3.48567 22.2394 2.87831L22.7545 2.69351L22.7277 2.60491C22.7042 2.52692 22.1795 0.803581 21.6632 0.17514C21.8678 0.106827 22.0705 0.0581686 22.2656 0.0304316C22.4052 0.0101438 22.5416 0 22.6716 0C23.7745 0 24.5764 0.732577 25.1221 2.23973L25.3082 2.75722L25.3968 2.73028C25.4746 2.7065 27.1958 2.1795 27.8256 1.66312C27.8957 1.87582 27.9435 2.07441 27.9697 2.26651C28.1622 3.5803 27.4393 4.51338 25.7602 5.11979L25.2445 5.30538L25.2713 5.39383C25.2948 5.47181 25.8208 7.19481 26.3371 7.82373C26.1312 7.89224 25.9291 7.94118 25.7341 7.96973C25.5957 7.98968 25.46 8 25.3305 8Z" fill="#00AC46"/>
</svg>
