<?xml version="1.0" encoding="UTF-8" standalone="no"?>
<svg
   width="36"
   height="36"
   viewBox="0 0 36 36"
   fill="none"
   version="1.1"
   id="svg4"
   xmlns="http://www.w3.org/2000/svg"
   xmlns:svg="http://www.w3.org/2000/svg">
  <g
     filter="url(#filter0_d_65_213)"
     id="g2">
    <rect
       x="1.5"
       width="33"
       height="33"
       rx="16.5"
       fill="#00ac46"
       id="rect1"
       y="1.5"
       style="stroke:#ffffff;stroke-width:3;stroke-opacity:1" />
    <path
       d="m 18.000008,10.999992 c -1.3845,0 -2.7378,0.4105 -3.889,1.1797 -1.1511,0.7692 -2.0483,1.8624 -2.5782,3.1415 -0.5298,1.2791 -0.6684,2.6866 -0.3983,4.0444 0.2701,1.3579 0.9368,2.6052 1.9158,3.5841 0.9789,0.979 2.2262,1.6457 3.5841,1.9158 1.3578,0.2701 2.7653,0.1315 4.0444,-0.3983 1.2791,-0.5299 2.3723,-1.4271 3.1415,-2.5782 0.7692,-1.1512 1.1797,-2.5045 1.1797,-3.889 0,-0.9193 -0.1811,-1.8295 -0.5328,-2.6788 -0.3518,-0.8493 -0.8674,-1.6209 -1.5175,-2.2709 -0.65,-0.6501 -1.4216,-1.1657 -2.2709,-1.5175 -0.8493,-0.3517 -1.7595,-0.5328 -2.6788,-0.5328 z m 2.8,7.7 h -2.8 c -0.1856,0 -0.3637,-0.0738 -0.495,-0.205 -0.1312,-0.1313 -0.205,-0.3094 -0.205,-0.495 v -4.2 c 0,-0.1857 0.0738,-0.3637 0.205,-0.495 0.1313,-0.1313 0.3094,-0.205 0.495,-0.205 0.1857,0 0.3637,0.0737 0.495,0.205 0.1313,0.1313 0.205,0.3093 0.205,0.495 v 3.5 h 2.1 c 0.1857,0 0.3637,0.0737 0.495,0.205 0.1313,0.1313 0.205,0.3093 0.205,0.495 0,0.1856 -0.0737,0.3637 -0.205,0.495 -0.1313,0.1312 -0.3093,0.205 -0.495,0.205 z"
       fill="#ffffff"
       id="path2" />
  </g>
  <defs
     id="defs4" />
</svg>
