<svg width="21" height="18" viewBox="0 0 21 18" fill="none" xmlns="http://www.w3.org/2000/svg">
<path d="M16.0009 14.5527C14.4596 14.5394 12.988 13.6211 12.988 12.1601V11.3104C13.5954 10.6143 14.2949 9.53893 14.5654 8.66917C14.595 8.52235 14.9316 8.44882 15.0289 8.34868C15.5564 7.84284 15.6588 6.98802 15.265 6.37854C15.2111 6.28681 14.9231 6.20651 14.9282 6.09306C14.9282 5.31668 14.9335 4.53866 14.9282 3.76391C14.9056 2.82717 14.628 1.854 13.946 1.16119C13.3959 0.601896 12.6391 0.268093 11.8583 0.124301C10.8725 -0.0559053 9.84172 -0.0461012 8.86461 0.192696C8.01949 0.397879 7.2246 0.873839 6.7318 1.58159C6.29796 2.19621 6.107 2.94085 6.07401 3.67708C6.06187 4.46677 6.07231 5.25809 6.06891 6.04941C6.08784 6.20651 5.75833 6.31505 5.69403 6.44507C5.32279 7.0947 5.48585 7.97939 6.08444 8.45209C6.23536 8.55223 6.45398 8.73594 6.50979 8.89467C6.77014 9.67595 7.46603 10.651 8.0127 11.2822V12.1603C8.0127 13.6211 6.57918 14.5313 4.99814 14.553C3.57433 14.574 1.57643 15.4127 0 18H21C19.417 15.411 17.3902 14.5663 16.0009 14.5527Z" fill="#00AC46"/>
</svg>
