<svg width="15" height="17" viewBox="0 0 15 17" fill="none" xmlns="http://www.w3.org/2000/svg">
<path fill-rule="evenodd" clip-rule="evenodd" d="M5.13155 1.26186H9.86838C10.0863 1.26186 10.2631 1.0912 10.2631 0.880939C10.2631 0.670673 10.0863 0.500023 9.86838 0.500023H5.13155C4.91366 0.500023 4.73682 0.670673 4.73682 0.880939C4.73682 1.0912 4.91366 1.26186 5.13155 1.26186Z" fill="#00AC46"/>
<path fill-rule="evenodd" clip-rule="evenodd" d="M12.42 2.89713C12.4942 2.8259 12.5944 2.78552 12.699 2.78552C12.804 2.78552 12.9043 2.8259 12.9785 2.89713L14.0948 3.97436C14.2492 4.1233 14.2492 4.36442 14.0952 4.51298C13.9409 4.66191 13.9409 4.90303 14.0952 5.05197C14.2492 5.20053 14.4994 5.20053 14.6534 5.05159C15.1156 4.60554 15.1156 3.8818 14.653 3.43575L13.5367 2.35852C13.3144 2.14406 13.0132 2.02369 12.699 2.02369C12.3852 2.02369 12.084 2.14444 11.8618 2.35852C11.7078 2.50745 11.7078 2.74857 11.8618 2.89713C12.0157 3.04607 12.266 3.04607 12.42 2.89713ZM0.905129 4.51298C0.750787 4.36442 0.751182 4.1233 0.905129 3.97436L2.02184 2.89713C2.09605 2.8259 2.19631 2.78552 2.30092 2.78552C2.40552 2.78552 2.50618 2.8259 2.58 2.89713C2.73394 3.04607 2.98421 3.04607 3.13815 2.89751C3.29249 2.74857 3.29248 2.50745 3.13854 2.35852C2.9163 2.14444 2.61513 2.02369 2.30092 2.02369C1.9871 2.02369 1.68592 2.14406 1.46368 2.35852L0.346972 3.43575C-0.115657 3.8818 -0.115657 4.60554 0.346972 5.05159C0.500919 5.20053 0.750787 5.20053 0.905129 5.05197C1.05908 4.90303 1.05908 4.66191 0.905129 4.51298Z" fill="#00AC46"/>
<path fill-rule="evenodd" clip-rule="evenodd" d="M7.49997 2.02518C11.6392 2.02518 14.9999 5.2683 14.9999 9.26258C14.9999 13.2569 11.6392 16.5 7.49997 16.5C3.36078 16.5 0 13.2569 0 9.26258C0 5.2683 3.36078 2.02518 7.49997 2.02518ZM7.10524 4.69007V9.26258C7.10524 9.36352 7.14669 9.46066 7.2209 9.53189C7.29511 9.6035 7.39537 9.6435 7.49997 9.6435L12.2368 9.64197C12.4547 9.64197 12.6315 9.47132 12.6315 9.26106C12.6315 9.05079 12.4547 8.88014 12.2368 8.88014L7.89471 8.88167V4.69007C7.89471 4.4798 7.71787 4.30915 7.49997 4.30915C7.28208 4.30915 7.10524 4.4798 7.10524 4.69007Z" fill="#00AC46"/>
</svg>
