<svg width="16" height="19" viewBox="0 0 16 19" fill="none" xmlns="http://www.w3.org/2000/svg">
<path d="M0 15.3965V18.1897C0 18.3603 0.146939 18.5 0.326531 18.5H10.5371C10.175 18.0283 9.93633 17.4728 9.84163 16.88C9.81224 16.7124 9.79592 16.5324 9.79592 16.3276C9.79592 15.381 10.1845 14.4593 10.8637 13.7765V10.76C9.69796 9.7762 8.16653 9.18965 6.53061 9.18965C2.92898 9.18965 0 11.9734 0 15.3965Z" fill="#00AC46"/>
<path d="M10.449 4.22414C10.449 2.17059 8.69133 0.5 6.53067 0.5C4.37002 0.5 2.6123 2.17059 2.6123 4.22414C2.6123 6.27769 4.37002 7.94828 6.53067 7.94828C8.69133 7.94828 10.449 6.27769 10.449 4.22414Z" fill="#00AC46"/>
<path d="M16.0001 3.16897C16.0001 2.22241 15.3634 1.41862 14.4752 1.12069V3.58172H12.9536V1.12069C12.0654 1.41862 11.4287 2.22241 11.4287 3.16897V3.20962C11.445 3.96655 11.863 4.62759 12.4965 5.00621V14.4903C12.3593 14.571 12.232 14.6672 12.1177 14.7759C11.6935 15.1669 11.4287 15.7193 11.4287 16.3276C11.4287 16.4331 11.4352 16.5355 11.4548 16.6379C11.6116 17.69 12.565 18.5 13.7144 18.5C14.9745 18.5 16.0001 17.5255 16.0001 16.3276C16.0001 15.6821 15.703 15.1017 15.2299 14.7045C15.1381 14.6238 15.0369 14.5527 14.9327 14.4907V5.00621C15.5756 4.62138 16.0001 3.94172 16.0001 3.16897ZM14.7822 16.9079L13.7144 17.4852L12.6467 16.9079V15.7472L13.3879 15.3469L13.7144 15.17L14.7822 15.7472V16.9079Z" fill="#00AC46"/>
</svg>
