<svg width="16" height="13" viewBox="0 0 16 13" fill="none" xmlns="http://www.w3.org/2000/svg">
<path d="M8.66667 5.47368V7.52632C8.66667 8.07071 8.87738 8.5928 9.25245 8.97775C9.62753 9.36269 10.1362 9.57895 10.6667 9.57895H15.3333C15.5611 9.58043 15.7871 9.53868 16 9.45579V10.9474C16 11.4918 15.7893 12.0139 15.4142 12.3988C15.0391 12.7837 14.5304 13 14 13H2C1.46957 13 0.960859 12.7837 0.585787 12.3988C0.210714 12.0139 0 11.4918 0 10.9474V2.05263C0 1.50824 0.210714 0.986145 0.585787 0.601202C0.960859 0.216259 1.46957 0 2 0H14C14.5304 0 15.0391 0.216259 15.4142 0.601202C15.7893 0.986145 16 1.50824 16 2.05263V3.54421C15.7871 3.46132 15.5611 3.41957 15.3333 3.42105H10.6667C10.1362 3.42105 9.62753 3.63731 9.25245 4.02225C8.87738 4.4072 8.66667 4.92929 8.66667 5.47368Z" fill="#00AC46"/>
<path d="M15.3333 4.78946H10.6667C10.4899 4.78946 10.3203 4.86155 10.1953 4.98986C10.0702 5.11817 10 5.29221 10 5.47367V7.5263C10 7.70777 10.0702 7.8818 10.1953 8.01011C10.3203 8.13843 10.4899 8.21051 10.6667 8.21051H15.3333C15.5101 8.21051 15.6797 8.13843 15.8047 8.01011C15.9298 7.8818 16 7.70777 16 7.5263V5.47367C16 5.29221 15.9298 5.11817 15.8047 4.98986C15.6797 4.86155 15.5101 4.78946 15.3333 4.78946ZM12.3333 7.5263C12.1356 7.5263 11.9422 7.46611 11.7778 7.35334C11.6133 7.24056 11.4851 7.08027 11.4095 6.89274C11.3338 6.7052 11.314 6.49885 11.3525 6.29976C11.3911 6.10068 11.4864 5.9178 11.6262 5.77427C11.7661 5.63074 11.9443 5.53299 12.1382 5.49339C12.3322 5.45379 12.5333 5.47411 12.716 5.55179C12.8987 5.62947 13.0549 5.76102 13.1648 5.9298C13.2747 6.09857 13.3333 6.297 13.3333 6.49999C13.3333 6.77218 13.228 7.03323 13.0404 7.2257C12.8529 7.41817 12.5985 7.5263 12.3333 7.5263Z" fill="#00AC46"/>
</svg>
